<?xml version="1.0" encoding="UTF-8"?>
<svg id="_лой_1" data-name="—лой_1" xmlns="http://www.w3.org/2000/svg" viewBox="0 0 1967.79 2356.1">
  <defs>
    <style>
      .cls-1 {
        fill: none;
      }

      .cls-2 {
        fill: #ffcbbd;
      }

      .cls-3 {
        fill: #0c0809;
      }

      .cls-4 {
        fill: #52c3e1;
      }

      .cls-5 {
        fill: #f28585;
      }
    </style>
  </defs>
  <path class="cls-1" d="M1359.11,1347.05c-.1-.02-.19-.04-.29-.06.1.02.19.04.29.06Z"/>
  <path class="cls-1" d="M1290.97,1321.56c-.32-.22-.63-.44-.95-.66.32.22.63.44.95.66Z"/>
  <path class="cls-1" d="M1285.26,1317.45c-.71-.55-1.4-1.12-2.09-1.69.69.57,1.38,1.14,2.09,1.69Z"/>
  <path class="cls-1" d="M1288.06,1319.54c-.88-.64-1.75-1.29-2.6-1.94.85.66,1.71,1.31,2.6,1.94Z"/>
  <path class="cls-1" d="M1363.54,1347.92c-.54-.1-1.07-.21-1.6-.31.54.1,1.07.21,1.6.31Z"/>
  <path class="cls-1" d="M1372.51,1349.49c-.9-.15-1.8-.3-2.7-.46.9.15,1.8.31,2.7.46Z"/>
  <path class="cls-1" d="M1368.01,1348.73c-.84-.15-1.67-.3-2.5-.45.83.15,1.66.31,2.5.45Z"/>
  <path class="cls-1" d="M1515.55,1343.64c-23.58-6.95-44.02-17.61-61.78-31.58,5.25,4.14,10.77,8.02,16.57,11.61,13.46,8.32,28.48,15.05,45.21,19.97Z"/>
  <path class="cls-1" d="M1470.34,1323.66c-1.22,1.4-2.46,2.73-3.73,3.98,1.27-1.25,2.52-2.58,3.73-3.98Z"/>
  <path class="cls-1" d="M1277.61,1310.75c.84-1.87,1.31-4.26,1.69-7.07-.39,2.82-.86,5.22-1.69,7.07Z"/>
  <path class="cls-1" d="M1377.3,1350.23c50.08,7.48,105.84,5.96,145.35.54-39.49,5.42-95.27,6.95-145.35-.54Z"/>
  <path class="cls-1" d="M471.42,1340.59c15.09-13.72,40.57-30.04,77.5-40.82-30.79,8.93-58.6,22.37-77.5,40.82Z"/>
  <path class="cls-1" d="M1432.23,1292.1c.48.52.96,1.03,1.44,1.54-.48-.51-.96-1.03-1.44-1.54Z"/>
  <path class="cls-1" d="M1377.06,1350.2c-1.07-.16-2.13-.33-3.19-.5,1.06.17,2.12.34,3.19.5Z"/>
  <path class="cls-1" d="M1440.23,1300.25c1.12,1.08,2.26,2.15,3.41,3.2-1.15-1.05-2.28-2.12-3.41-3.2Z"/>
  <path class="cls-1" d="M1423.53,1345.31s-.01,0-.02,0c0,0,.01,0,.02,0Z"/>
  <path class="cls-1" d="M1385.36,1216.84c.69,1.63,1.4,3.25,2.12,4.86-.71-1.61-1.43-3.22-2.12-4.86Z"/>
  <path class="cls-1" d="M1427.87,1287.23c.22.25.44.5.66.75-.22-.25-.44-.5-.66-.75Z"/>
  <path class="cls-1" d="M1444.73,1304.43c1.14,1.02,2.29,2.03,3.45,3.03-1.16-.99-2.31-2-3.45-3.03Z"/>
  <path class="cls-1" d="M1529.65,1349.74c-.42.07-.85.13-1.28.19.42-.06.86-.13,1.28-.19Z"/>
  <path class="cls-1" d="M1526.2,1350.26c-.62.09-1.26.18-1.89.27.63-.09,1.27-.18,1.89-.27Z"/>
  <path class="cls-1" d="M1516.41,1343.89c3.97,1.15,8.03,2.19,12.19,3.14-4.15-.94-8.22-1.98-12.19-3.14Z"/>
  <path class="cls-1" d="M1530.09,1347.35c2.04.45,4.1.88,6.19,1.28-2.09-.4-4.14-.83-6.19-1.28Z"/>
  <path class="cls-1" d="M1448.86,1308.05c1.42,1.2,2.86,2.38,4.32,3.54-1.46-1.16-2.9-2.34-4.32-3.54Z"/>
  <path class="cls-1" d="M270.65,1303.66s-.02-.03-.03-.04c0,.01.02.03.03.04Z"/>
  <path class="cls-1" d="M427.89,1891.13c0,10.08,6.65,20.16,19.96,20.16-13.3,0-19.96-10.08-19.96-20.16Z"/>
  <path class="cls-1" d="M178.49,1100.47c.02-.71.55-2.39.9-7.83-.38,5.76-.95,7.23-.9,7.83Z"/>
  <path class="cls-1" d="M447.85,1911.29c13.32,0,19.96-10.08,19.96-20.16,0,10.08-6.66,20.16-19.96,20.16Z"/>
  <path class="cls-1" d="M334.36,1808.23c13.76,0,20.4-10.76,19.94-21.17.46,10.4-6.19,21.17-19.94,21.17Z"/>
  <path class="cls-1" d="M315.02,1782.83c-2.74,11.48,3.71,25.39,19.34,25.39-15.63,0-22.08-13.91-19.34-25.39Z"/>
  <path class="cls-1" d="M459.42,1700.13c-13.32,0-19.96,10.08-19.96,20.16,0-10.08,6.66-20.16,19.96-20.16Z"/>
  <path class="cls-1" d="M457.98,1366.98c-.52-.36-1.06-.68-1.63-.98.52.28,1.07.61,1.63.98Z"/>
  <path class="cls-1" d="M459.42,1740.44c13.32,0,19.96-10.08,19.96-20.16,0,10.08-6.66,20.16-19.96,20.16Z"/>
  <path class="cls-1" d="M458.67,1367.47c-.07-.06-.15-.11-.22-.17.07.05.15.11.22.17Z"/>
  <path class="cls-1" d="M433.5,1321.53c-41.28,44.53-27.77,93.29,88.98,100.74-116.4-7.43-130.06-56.2-88.98-100.74Z"/>
  <path class="cls-1" d="M461.81,1370.59s-.02-.03-.03-.04c.01.01.02.03.03.04Z"/>
  <path class="cls-1" d="M270.23,1303.07c-6.14-8.94-7.78-20.95-17.64-43.08,9.8,21.98,11.33,34.02,17.64,43.08Z"/>
  <path class="cls-1" d="M1404.6,1277.11c-16.02,0-22.38,12.58-20.59,23.68-1.61-11.1,4.98-23.68,20.59-23.68Z"/>
  <path class="cls-1" d="M1402.8,1317.42c28.62,0,26.47-40.31,1.8-40.31,24.66,0,26.78,40.31-1.8,40.31Z"/>
  <path class="cls-1" d="M408.84,527.98c-2.51-.55-5.56-.38-9.62.31,4.04-.68,7.1-.85,9.62-.31Z"/>
  <path class="cls-1" d="M1363.84,1285.24c.11,34.3,27.55,58.29,57.38,59.98-29.83-1.69-57.27-25.68-57.38-59.98Z"/>
  <path class="cls-1" d="M1438.61,1298.68c-.89-.87-1.77-1.76-2.64-2.65.87.89,1.75,1.78,2.64,2.65Z"/>
  <path class="cls-1" d="M1422.38,1345.27c-.37-.01-.74-.02-1.11-.04.37.02.74.03,1.11.04Z"/>
  <path class="cls-1" d="M330.57,1334.03c-8.8-3.28-17.33-7.26-24.49-9.55,7.03,2.24,15.59,6.27,24.49,9.55Z"/>
  <path class="cls-1" d="M409.4,610.03c7.48,13.54,16.21,28.2,25.73,42.65-7.69-11.71-17.06-27.16-25.73-42.65Z"/>
  <path class="cls-1" d="M1695.5,1291.27c70.94-58.79,117.9-124.93,150.95-206.49-32.08,78.02-79.85,147.57-150.95,206.49Z"/>
  <path class="cls-1" d="M437.03,655.54c-1.6,4.46-3.17,8.87-4.69,13.23,1.52-4.36,3.09-8.77,4.69-13.23Z"/>
  <path class="cls-1" d="M431.95,669.87c-20.72,59.43-34.07,109.91-42.37,155,8.3-45.09,21.66-95.57,42.37-155Z"/>
  <path class="cls-1" d="M1282.59,1315.29c-1.74-1.47-3.4-2.98-4.98-4.54,1.57,1.56,3.23,3.07,4.98,4.54Z"/>
  <path class="cls-1" d="M859.83,1355.14c.07-1.57.11-3.13.15-4.69-.04,1.56-.09,3.13-.15,4.69Z"/>
  <path class="cls-1" d="M620.73,1135.03c-30.26,1.59-63.46,6.94-99.67,16.62,23.23-5.03,59.2-13.87,99.67-16.62Z"/>
  <path class="cls-1" d="M494.99,1154.56s.05.02.07.03c-.06-.03-.11-.06-.17-.1.04.02.07.05.1.07Z"/>
  <path class="cls-1" d="M860.07,1342.17c0-.36,0-.71,0-1.07,0,.36,0,.71,0,1.07Z"/>
  <path class="cls-1" d="M860.02,1349.05c.03-1.33.05-2.65.05-3.97,0,1.33-.03,2.65-.05,3.97Z"/>
  <path class="cls-1" d="M493.29,1153.44c-.15-.11-.31-.22-.46-.34.15.11.3.23.46.34Z"/>
  <path class="cls-1" d="M539.78,1105.22c.51-.11,1.01-.23,1.52-.34-.51.11-1.01.23-1.52.34Z"/>
  <path class="cls-1" d="M530.4,1107.35c1.34-.32,2.68-.64,4.02-.95-1.34.31-2.68.63-4.02.95Z"/>
  <path class="cls-1" d="M524.16,1108.88c1.13-.28,2.26-.58,3.39-.85-1.13.28-2.26.57-3.39.85Z"/>
  <path class="cls-1" d="M516.11,1110.97c1.53-.41,3.05-.82,4.58-1.22-1.53.39-3.05.81-4.58,1.22Z"/>
  <path class="cls-1" d="M507.02,1113.48c2.27-.65,4.55-1.29,6.83-1.91-2.28.62-4.56,1.26-6.83,1.91Z"/>
  <path class="cls-1" d="M1183.33,1210.84c-.41.86-.8,1.74-1.19,2.62.39-.88.79-1.76,1.19-2.62Z"/>
  <path class="cls-1" d="M1189.11,1199.84c-.14.24-.27.48-.41.71.14-.24.27-.48.41-.71Z"/>
  <path class="cls-1" d="M1187.1,1203.4c-.25.45-.48.91-.72,1.36.24-.46.48-.91.72-1.36Z"/>
  <path class="cls-1" d="M1191.2,1196.37s-.03.04-.04.06c.01-.02.03-.04.04-.06Z"/>
  <path class="cls-1" d="M1185.17,1207.07c-.33.66-.66,1.33-.98,2,.33-.67.65-1.34.98-2Z"/>
  <path class="cls-1" d="M1166.47,1305.46c.04,2.04.09,4.1.16,6.19-.07-2.08-.12-4.15-.16-6.19Z"/>
  <path class="cls-1" d="M1178.33,1222.83c-7.29,19.8-11.3,42.96-11.84,70.22.55-27.3,4.57-50.46,11.84-70.22Z"/>
  <path class="cls-1" d="M1166.47,1293.42c-.03,1.7-.05,3.43-.05,5.17,0-1.74.02-3.46.05-5.17Z"/>
  <path class="cls-1" d="M1181.58,1214.73c-.46,1.06-.91,2.14-1.35,3.22.44-1.08.89-2.16,1.35-3.22Z"/>
  <path class="cls-1" d="M676.89,1096.58c.1.01.19.02.29.03-.1-.01-.19-.02-.29-.03Z"/>
  <path class="cls-1" d="M1179.91,1218.72c-.5,1.24-.98,2.51-1.45,3.78.47-1.27.96-2.53,1.45-3.78Z"/>
  <path class="cls-1" d="M1345.98,1071.14c-.19-1.02-.37-2.06-.56-3.08.18,1.04.37,2.07.56,3.08Z"/>
  <path class="cls-1" d="M923.84,670.93c54.11-4.19,100.88-1.84,141.38,5.63-46.59-9.39-93.66-9.32-141.38-5.63Z"/>
  <path class="cls-1" d="M409.62,528.17s-.03,0-.05-.01c.02,0,.03,0,.05.01Z"/>
  <path class="cls-1" d="M923.84,670.93c-24.31,6.68-48.42,13.61-72.29,20.17,23.92-6.57,48.04-13.5,72.29-20.17Z"/>
  <path class="cls-1" d="M1340.06,1072.26c1.96-.38,3.92-.75,5.91-1.12-1.97.36-3.94.74-5.91,1.12Z"/>
  <path class="cls-1" d="M1316.16,918.11c-14.46-52.51-36.58-104.35-75.49-147.08,38.38,43.53,60.95,95.99,75.49,147.08Z"/>
  <path class="cls-1" d="M1166.46,1304.35c-.02-1.67-.04-3.33-.04-4.96,0,1.64.02,3.3.04,4.96Z"/>
  <path class="cls-1" d="M768.43,1166.62c12.52,7.97,24.52,17.71,35.73,29.54,7.57,7.16,14.25,14.92,20.14,23.16-14.28-20.83-32.87-38.76-55.87-52.7Z"/>
  <path class="cls-1" d="M484.05,1136.06c-.41,6.02,2.17,12.16,8.73,17-5.13-3.98-8.52-10.41-8.73-17Z"/>
  <path class="cls-1" d="M899.07,1373.77c2.03-51.56-1.95-101.76-22.78-145.46,20.75,43.55,24.76,93.8,22.78,145.46Z"/>
  <path class="cls-1" d="M876.29,1228.31c-32.41-67.14-88.14-106.26-153.9-123.43,65.76,17.18,121.49,56.3,153.9,123.43Z"/>
  <path class="cls-1" d="M1130.48,1433.11c0,32.49-.75,65.75-3.32,97.72.42-4.46.81-8.8,1.18-12.99,2.8-28.19,2.95-56.6,2.14-84.73Z"/>
  <path class="cls-1" d="M699.77,1099.91c1.07.19,2.15.38,3.22.59-1.07-.21-2.15-.39-3.22-.59Z"/>
  <path class="cls-1" d="M682.64,1097.26c.35.05.71.08,1.07.13-.35-.05-.71-.08-1.07-.13Z"/>
  <path class="cls-1" d="M711.54,1102.27c1.36.3,2.71.6,4.06.91-1.35-.32-2.71-.61-4.06-.91Z"/>
  <path class="cls-1" d="M705.63,1101.03c1.23.25,2.47.49,3.7.75-1.23-.26-2.46-.5-3.7-.75Z"/>
  <path class="cls-1" d="M694.12,1098.93c.83.14,1.67.26,2.5.4-.83-.14-1.67-.27-2.5-.4Z"/>
  <path class="cls-1" d="M688.4,1098.05c.59.09,1.19.16,1.78.25-.59-.09-1.19-.16-1.78-.25Z"/>
  <path class="cls-1" d="M1334.82,1073.3c1.01-.2,2.02-.41,3.03-.61-1.01.2-2.02.4-3.03.61Z"/>
  <path class="cls-1" d="M717.03,1103.54c1.6.39,3.2.77,4.79,1.19-1.59-.41-3.19-.8-4.79-1.19Z"/>
  <path class="cls-1" d="M1132.32,1237.99c-.22,1.3-.41,2.64-.61,4.02,5.47-29.55,15.72-56.82,33.99-80.84-16.42,20.92-28.19,46.21-33.38,76.82Z"/>
  <path class="cls-1" d="M1023.96,1727.57c.13-.03.26-.06.39-.08-.13.03-.26.06-.39.08Z"/>
  <path class="cls-1" d="M1019.63,1728.38c.29-.05.57-.1.86-.15-.29.05-.57.1-.86.15Z"/>
  <path class="cls-1" d="M1015.38,1728.99c.34-.04.67-.09,1.01-.14-.34.04-.67.1-1.01.14Z"/>
  <path class="cls-1" d="M624.4,1865.04c-.18-.31-.34-.62-.5-.92.17.31.33.62.5.92Z"/>
  <path class="cls-1" d="M1327.46,2053.1c0,13.32,10.08,19.96,20.16,19.96-10.08,0-20.16-6.66-20.16-19.96Z"/>
  <path class="cls-1" d="M1372.66,2150.2c-13.32,0-19.96,10.08-19.96,20.16,0-10.08,6.66-20.16,19.96-20.16Z"/>
  <path class="cls-1" d="M1347.61,2033.14c-10.08,0-20.16,6.65-20.16,19.97,0-13.31,10.08-19.96,20.16-19.97Z"/>
  <path class="cls-1" d="M1092.1,2044.96c-1.22.2-2.43.4-3.65.59,1.22-.19,2.43-.4,3.65-.59Z"/>
  <path class="cls-1" d="M863.89,2051.67c52.08,10.92,139.87,7.31,223.8-6-84.06,13.31-171.92,16.88-223.8,6Z"/>
  <path class="cls-1" d="M1422.75,1962.1c13.44,0,20.08-10.26,19.95-20.44.12,10.17-6.54,20.44-19.95,20.44Z"/>
  <path class="cls-1" d="M1454.53,1788.74c-.34.56-.69,1.11-1.04,1.66.36-.55.71-1.1,1.04-1.66Z"/>
  <path class="cls-1" d="M1391.83,1700.06c.3.09.59.17.88.26-.29-.09-.59-.18-.88-.26Z"/>
  <path class="cls-1" d="M1422.75,1921.78c-13.19,0-19.84,9.89-19.95,19.88.13-9.99,6.78-19.88,19.95-19.88Z"/>
  <path class="cls-1" d="M1443.87,1733.76s.04.06.06.09c-.02-.03-.04-.06-.06-.09Z"/>
  <path class="cls-1" d="M1372.66,2190.52c13.32,0,19.96-10.08,19.96-20.16,0,10.08-6.66,20.16-19.96,20.16Z"/>
  <path class="cls-1" d="M1096.52,2044.23c-.21.04-.42.07-.63.11.21-.03.42-.07.63-.11Z"/>
  <path class="cls-1" d="M935.26,2296.24c13.93,0,20.56-11.03,19.91-21.55.63,10.52-6.01,21.55-19.91,21.55Z"/>
  <path class="cls-1" d="M935.26,2255.93c-12.6,0-19.23,9.03-19.9,18.54.68-9.51,7.31-18.54,19.9-18.54Z"/>
  <path class="cls-1" d="M1024.41,2156.69c-.47-9.69-7.11-19.02-19.93-19.02,12.8,0,19.44,9.34,19.93,19.02Z"/>
  <path class="cls-1" d="M800.8,2093.96c-12.76,0-19.39,9.26-19.92,18.9.54-9.64,7.18-18.9,19.92-18.9Z"/>
  <path class="cls-1" d="M820.7,2112.54c-.66-9.53-7.28-18.59-19.9-18.59,12.61,0,19.24,9.06,19.9,18.59Z"/>
  <path class="cls-1" d="M1147.83,2263.79c-.08-10.01-6.72-19.96-19.95-19.96,13.21,0,19.86,9.95,19.95,19.96Z"/>
  <path class="cls-1" d="M1107.92,2263.74c-.12,10.16,6.53,20.41,19.95,20.41-13.4,0-20.06-10.24-19.95-20.41Z"/>
  <path class="cls-1" d="M984.57,2156.46c-.64,10.51,5.99,21.53,19.91,21.53-13.89,0-20.53-11.01-19.91-21.53Z"/>
  <path class="cls-1" d="M1168.98,2099.39c-13.9,0-20.53,10.98-19.92,21.48-.6-10.5,6.04-21.48,19.92-21.48Z"/>
  <path class="cls-1" d="M1168.98,2099.39c16.21,0,22.55,14.97,19.01,26.67,3.55-11.7-2.78-26.67-19.01-26.67Z"/>
  <path class="cls-1" d="M1528.16,2033.54c12.85,0,19.48-9.38,19.93-19.1-.46,9.71-7.1,19.1-19.93,19.1Z"/>
  <path class="cls-1" d="M1826.01,1325.3c-3.09,5.74-3.71,13.1-1.99,19.83,0,.12.01.24.02.36-.11-8.25,0-15.09,1.97-20.19Z"/>
  <path class="cls-1" d="M1864.77,1345.19c-.76-16.17-5.44-30.89-24.28-29.82,14.09-.8,22.17,10.75,24.28,29.82Z"/>
  <path class="cls-1" d="M1754.71,1511.02c13.29-14.8,27.58-33.73,40.53-58.04-11.56,21.19-25.65,41.01-40.53,58.04Z"/>
  <path class="cls-1" d="M1824.18,1358.02c-.6,17.56-4.36,35.57-10.42,53.3.67-1.84,1.33-3.69,1.98-5.57,7.19-17.81,8.38-34.06,8.44-47.73Z"/>
  <path class="cls-1" d="M1705.42,1560.72c.11-.47.22-.94.37-1.41-.15.47-.26.94-.37,1.41Z"/>
  <path class="cls-1" d="M1739.19,1579.01c.11-.06.21-.11.32-.18.07-.1.13-.19.22-.36-.18.19-.36.35-.54.53Z"/>
  <path class="cls-1" d="M1741.41,1577.7c18.09-11.01,42.24-34.69,64.5-66.08-17.61,24.29-39.12,47.18-64.5,66.08Z"/>
  <path class="cls-1" d="M1710.11,1577.89c2.56,2.92,5.92,5.15,9.75,6.2.2.06.42.09.62.13-3.96-1.06-7.61-3.3-10.37-6.34Z"/>
  <path class="cls-1" d="M1710.01,1577.78s-.02-.02-.03-.03c0,.01.02.02.03.03Z"/>
  <path class="cls-1" d="M1725.8,1539.4c-7.86,5.66-16.81,10.23-20.01,19.91,1.35-4.07,9-10.18,20.01-19.91Z"/>
  <path class="cls-1" d="M1211.4,1870.89c31.16-2.47,66.52-7.41,100.61-14.78-22.2,4.12-44.75,7.1-66.05,9.27-12.15,2.34-23.67,4.17-34.56,5.51Z"/>
  <path class="cls-1" d="M1445.43,1735.9c.52.73,1.03,1.48,1.53,2.23-.5-.76-1.01-1.5-1.53-2.23Z"/>
  <path class="cls-1" d="M1546.91,1652.6c-1.7,11.09,4.86,23.61,19.7,23.61-14.83,0-21.4-12.52-19.7-23.61Z"/>
  <path class="cls-1" d="M1075.25,1846.99c5.79,7.09,14.65,13.17,26.73,17.24-11.98-4.55-20.88-10.47-26.73-17.24Z"/>
  <path class="cls-1" d="M1081.53,1793.96c-1.85,1.99-3.61,3.99-5.26,6-4.94,5.93-7.96,12.57-8.98,19.33,1.51-8.12,6.01-16.44,13.5-24.42.24-.3.5-.61.75-.91Z"/>
  <path class="cls-1" d="M1390.54,1699.69c-61.3-17.46-150.42,1.27-221.04,34.48,69.01-31.68,159-51.95,221.04-34.48Z"/>
  <path class="cls-1" d="M1528.16,1993.23c-13.81,0-20.44,10.83-19.93,21.27-.5-10.44,6.15-21.27,19.93-21.27Z"/>
  <path class="cls-1" d="M1585.95,1650.82c-1.92-8.06-8.36-14.92-19.34-14.92,10.98,0,17.42,6.86,19.34,14.92Z"/>
  <path class="cls-1" d="M1541.22,1810.81c-3.43,11.67,2.92,26.49,19.06,26.49-16.13,0-22.49-14.82-19.06-26.49Z"/>
  <path class="cls-1" d="M1579.29,1810.63c-2.27-7.5-8.61-13.65-19.01-13.65,10.4,0,16.73,6.15,19.01,13.65Z"/>
  <path class="cls-1" d="M706.95,2164.07c13.3,0,19.96,10.08,19.96,20.16,0-10.08-6.65-20.16-19.96-20.16Z"/>
  <path class="cls-1" d="M622.6,1861.55c-.15-.32-.28-.65-.42-.98.14.33.28.66.42.98Z"/>
  <path class="cls-1" d="M582.73,1830.37c15.46,0,21.94,13.62,19.43,25.03,2.52-11.41-3.96-25.03-19.43-25.03Z"/>
  <path class="cls-1" d="M582.73,1830.37c-13.91,0-20.54,11-19.92,21.51-.62-10.51,6.03-21.51,19.92-21.51Z"/>
  <path class="cls-1" d="M567.17,2087.9c12.9,0,19.54-9.46,19.94-19.21-.41,9.75-7.06,19.21-19.94,19.21Z"/>
  <path class="cls-1" d="M621.13,1857.93c-.22-.61-.42-1.23-.61-1.86.19.63.39,1.25.61,1.86Z"/>
  <path class="cls-1" d="M628.98,1871.66c-.36-.44-.7-.88-1.03-1.32.34.44.68.88,1.03,1.32Z"/>
  <path class="cls-1" d="M640.45,1380.85c90.65-10.47,121.94-42.98,103.8-67.03,17.81,24.09-13.99,56.66-103.8,67.03Z"/>
  <path class="cls-1" d="M627.72,1870.05c-.29-.39-.57-.78-.85-1.18.28.39.56.79.85,1.18Z"/>
  <path class="cls-1" d="M547.36,2065.15c-1.24,10.86,5.35,22.75,19.81,22.75-14.44,0-21.04-11.89-19.81-22.75Z"/>
  <path class="cls-1" d="M541.51,1365.46c3.07,6.51,7.33,12.64,12.79,18.07,5.77,5.73,12.15,9.9,18.82,12.68-13.55-6.19-24.93-17.36-31.61-30.75Z"/>
  <path class="cls-1" d="M782.77,1301.9c26.41,55.56-23.12,135.05-260.29,120.37,238.43,14.75,286.96-64.82,260.29-120.37Z"/>
  <path class="cls-1" d="M650.8,1314.68c-5.29-11.36-14.08-21.28-25.86-27.89-1.75-.98-3.53-1.84-5.33-2.61,13.37,6.2,24.58,17.25,31.19,30.5Z"/>
  <path class="cls-1" d="M605.79,1346.63c-.04-9.43-5.11-15.42-11.64-18.04,6.53,2.63,11.6,8.61,11.64,18.04Z"/>
  <path class="cls-1" d="M605.77,1347.9c-.02.4-.05.8-.08,1.18.04-.39.07-.78.08-1.18Z"/>
  <path class="cls-1" d="M625.43,1866.74c-.21-.33-.4-.67-.6-1,.2.33.39.67.6,1Z"/>
  <path class="cls-1" d="M565.45,1346.11c-.44,10.51,5.15,17,12.31,19.57-7.16-2.58-12.76-9.06-12.31-19.57Z"/>
  <path class="cls-1" d="M454.73,1362.53c-.36.69-.73,1.38-1.08,2.08.53.3,1.13.58,1.78.91-.77-.47-1.01-1.5-.7-2.99Z"/>
  <path class="cls-1" d="M626.53,1868.41c-.25-.36-.48-.72-.72-1.08.24.36.47.72.72,1.08Z"/>
  <path class="cls-1" d="M621.82,1859.75c-.17-.41-.32-.83-.47-1.25.15.42.31.84.47,1.25Z"/>
  <path class="cls-1" d="M552.44,1298.77c.6-.62,1.21-1.2,1.82-1.79-.62.58-1.23,1.18-1.82,1.79Z"/>
  <path class="cls-1" d="M629.08,1871.78c51.54,62.77,280.77,53.57,333.58,39.11-51.09,13.99-281.84,23.87-333.58-39.11Z"/>
  <path class="cls-1" d="M720.45,2003.95c0-13.53-10.4-20.16-20.63-19.95,10.23-.2,20.63,6.45,20.63,19.95Z"/>
  <path class="cls-1" d="M695.98,2023.5c11.29,2.19,24.47-4.32,24.47-19.55,0,15.22-13.18,21.73-24.47,19.55Z"/>
  <path class="cls-1" d="M706.95,2164.07c-13.32,0-19.96,10.08-19.96,20.16,0-10.08,6.66-20.16,19.96-20.16Z"/>
  <path class="cls-1" d="M623.46,1863.31c-.16-.31-.3-.62-.45-.93.15.31.3.62.45.93Z"/>
  <path class="cls-2" d="M552.44,1298.77c-1.18.33-2.35.66-3.52,1-36.93,10.78-62.42,27.1-77.5,40.82-6.82,6.65-12.47,13.96-16.69,21.94-.3,1.49-.06,2.52.7,2.99.3.15.6.31.92.48.57.3,1.11.63,1.63.98.15.1.31.21.46.32.07.05.15.11.22.17,1.02.77,2.08,1.76,3.11,3.08.01.01.02.03.03.04.22.29.44.59.66.9,29.62,9.45,60.88,10.75,91.83,12.04-5.46-5.43-9.73-11.56-12.79-18.07-10.14-20.31-9.46-45.73,10.94-66.7Z"/>
  <path class="cls-2" d="M1279.3,1303.67c-.38,2.81-.85,5.2-1.69,7.07,1.57,1.56,3.23,3.07,4.98,4.54.19.16.39.31.59.47.69.57,1.38,1.14,2.09,1.69.06.05.13.1.2.15.85.66,1.71,1.31,2.6,1.94.64.46,1.3.91,1.96,1.36.32.22.63.44.95.66,17.75,11.88,41.55,20.08,67.85,25.43.1.02.19.04.29.06.94.19,1.88.37,2.83.55.54.1,1.07.21,1.6.31.65.12,1.31.24,1.97.36.83.15,1.66.31,2.5.45.6.1,1.2.2,1.8.3.9.15,1.8.31,2.7.46.45.07.91.14,1.36.21,1.06.17,2.12.34,3.19.5.08.01.16.02.24.03,50.08,7.48,105.86,5.95,145.35.54.56-.08,1.1-.16,1.65-.23.63-.09,1.27-.18,1.89-.27.74-.11,1.46-.22,2.18-.33.42-.06.86-.13,1.28-.19,2.27-.36,4.48-.73,6.62-1.11-2.09-.4-4.15-.83-6.19-1.28-.5-.11-.99-.22-1.49-.33-4.16-.94-8.23-1.99-12.19-3.14-.29-.08-.57-.17-.85-.25-16.73-4.92-31.74-11.65-45.21-19.97-1.22,1.4-2.46,2.73-3.73,3.98-12.72,12.54-28.12,17.93-43.08,17.66,0,0-.01,0-.02,0-.38,0-.76-.03-1.13-.04-.37-.01-.74-.02-1.11-.04-.01,0-.03,0-.04,0-29.83-1.69-57.27-25.68-57.38-59.98,0-.86.01-1.72.04-2.59.77-21.37,12.4-38.95,29.15-49.03-1.91-3.89-3.77-7.87-5.56-11.92-.72-1.61-1.43-3.22-2.12-4.86-104.53,23.69-103.23,66.43-106.05,86.83Z"/>
  <path class="cls-2" d="M1851.21,1072.83c-1.55,4-3.13,7.99-4.76,11.94-33.04,81.56-80.01,147.7-150.95,206.49-1.09,13.31-6.12,26.25-15.16,36.62-78.21,69.94-194.85,72.07-294.31,64.14-49.68-5.83-104.24-16.02-139.13-55.01-10.68-11.82-17.37-28.84-7.27-41.84,4.71-65.3,63.39-100.76,131.47-117.42-6.85-21.65-12.47-44.21-17.34-67.09-77.43,15.21-132.92,38.29-162.56,85.71-.01.02-.03.04-.04.06-.7,1.12-1.38,2.25-2.05,3.4-.14.24-.27.48-.41.71-.54.94-1.08,1.89-1.6,2.85-.25.45-.48.91-.72,1.36-.41.76-.81,1.53-1.2,2.3-.33.66-.66,1.33-.98,2-.29.59-.58,1.18-.86,1.77-.41.86-.8,1.74-1.19,2.62-.19.42-.38.84-.57,1.26-.46,1.06-.91,2.14-1.35,3.22-.11.26-.22.52-.32.78-.5,1.24-.98,2.5-1.45,3.78-.04.11-.09.22-.13.33-7.27,19.76-11.3,42.92-11.84,70.22,0,.12,0,.24-.01.37-.03,1.7-.04,3.43-.05,5.17,0,.27,0,.53,0,.8,0,1.64.02,3.3.04,4.96,0,.37,0,.74,0,1.12.03,2.04.09,4.1.16,6.19,4.6,142.45,34.79,482.97-186.85,455.86-188.94-49.44-126.92-269.16-119.95-412.37.07-1.56.11-3.12.15-4.69.01-.47.02-.94.03-1.4.03-1.32.05-2.65.05-3.97,0-.97,0-1.94,0-2.91,0-.36,0-.71,0-1.07-.41-45.16-12.2-87.41-35.76-121.78-5.89-8.24-12.57-16-20.14-23.16-11.22-11.83-23.22-21.57-35.73-29.54-37.44-22.69-86.55-34.81-147.7-31.59-40.47,2.74-76.44,11.59-99.67,16.62-1.67.45-3.34.9-5.03,1.36-7.56,5.35-15.11,4.99-20.98,1.58-.02-.01-.05-.02-.07-.03-.04-.02-.07-.05-.1-.07-.55-.33-1.08-.68-1.6-1.06-.16-.11-.31-.22-.46-.34-.02-.01-.03-.03-.05-.04-6.57-4.84-9.15-10.98-8.73-17-.31-9.45,5.92-19.23,22.97-22.58,2.27-.65,4.55-1.29,6.83-1.91.75-.21,1.51-.4,2.26-.6,1.53-.41,3.05-.82,4.58-1.22,1.16-.3,2.31-.58,3.47-.87,1.13-.28,2.26-.58,3.39-.85.95-.23,1.9-.45,2.85-.67,1.34-.32,2.68-.64,4.02-.95,1.78-.41,3.57-.8,5.36-1.19.51-.11,1.01-.23,1.52-.34,45.8-9.83,92.08-13.09,135.6-8.3.1.01.19.02.29.03,1.83.2,3.64.43,5.46.66.35.05.71.08,1.07.13,1.57.21,3.14.43,4.7.66.59.09,1.19.16,1.78.25,1.32.2,2.62.42,3.94.63.83.14,1.67.26,2.5.4,1.06.18,2.11.38,3.16.57,1.07.19,2.15.38,3.22.59.88.17,1.75.36,2.63.53,1.23.25,2.47.49,3.7.75.74.16,1.48.33,2.22.5,1.36.3,2.71.6,4.06.91.48.11.95.24,1.43.35,1.6.39,3.2.77,4.79,1.19.19.05.38.1.56.15,65.76,17.17,121.49,56.29,153.9,123.43,20.82,43.7,24.81,93.9,22.78,145.46-4.59,119.8-41.38,247.25,23.66,316.67,23.34,22.33,55,42.07,88.42,38.98,1.43-.12,2.84-.27,4.24-.44.34-.04.67-.09,1.01-.14,1.09-.14,2.17-.3,3.24-.47.29-.05.57-.1.86-.15,1.17-.2,2.33-.42,3.47-.66.13-.03.26-.06.39-.08,79.59-16.97,95.87-123.45,102.81-196.66,2.57-31.96,3.33-65.23,3.32-97.72-1.93-67.68-9.38-133.71,1.23-191.1.19-1.37.39-2.72.61-4.02,5.19-30.62,16.96-55.9,33.38-76.82,30-39.45,81.63-70.15,169.11-87.87,1.01-.21,2.02-.41,3.03-.61.74-.15,1.47-.29,2.22-.43,1.97-.38,3.94-.76,5.91-1.12-.19-1.02-.37-2.05-.56-3.08-8.13-45.18-14.93-97.89-29.26-149.94-14.54-51.09-37.11-103.54-75.49-147.08-23.98-26.33-54.33-49.2-93.19-66.64-27.27-13.41-54.68-22.28-82.25-27.84-40.5-7.47-87.27-9.82-141.38-5.63-24.25,6.67-48.37,13.6-72.29,20.17-129.53,35.6-251.72,60.42-356.67-22.66-74.52-104.95-70.95-136.02-85.26-140.26-.02,0-.03,0-.05-.01-.24-.07-.48-.13-.73-.19-2.52-.55-5.58-.38-9.62.31-11.16,1.88-18.69,10.91-15.76,25.4,1.6,7.92,11.39,30.01,25.94,56.35,8.67,15.5,18.05,30.95,25.73,42.65.63.95,1.25,1.9,1.89,2.85-1.6,4.46-3.17,8.87-4.69,13.23-.13.37-.25.73-.38,1.1-20.72,59.42-34.07,109.91-42.37,155-30.59,166.09,7.32,258.91-2.59,455.97-1.51,66.52-30.14,62.98-56.41,53.19-8.9-3.28-17.47-7.31-24.49-9.55-20.87-7.78-29.94-13.2-35.43-20.81,0-.01-.02-.03-.03-.04-.13-.18-.27-.37-.39-.56-6.31-9.05-7.84-21.09-17.64-43.08-65.61-170.65-74.2-156.57-74.1-159.52-.05-.59.53-2.07.9-7.83-7.75-2.48-10.78-10.1-12.1-17.89-109.34-5.67-216.18,110.09-143.45,343.32,27.78,93.5,82.54,201.91,176.46,235.54,20.09,136.69,73.01,284.11,155.33,399,277.81,365.98,1200.33,556.1,1345.61-354.4,110.44,4.39,179.9-95.12,217.59-187.06,98.23-221.47,34.68-400.47-67.62-438.31ZM149.35,1230.5c-6.98.84-11.48,6.8-15.46,12.04-29.12,48.99-7.82,109.37,5.6,159.35,6.71,25.31-30.79,36.22-38.87,10.72-16.2-56.88-34.81-121.22-8.43-177.82,8.6-24.15,54.04-66.75,71.22-29.11,2.8,10.16-3.36,22.47-14.07,24.82ZM301.26,1640.73c-25.3-8.98-12.51-47.53,13.14-39.76,25.24,8.46,11.79,47.96-13.14,39.76ZM334.36,1808.23c-15.64,0-22.08-13.91-19.34-25.39,1.92-8.06,8.36-14.92,19.34-14.92,12.87,0,19.51,9.42,19.94,19.15.46,10.4-6.17,21.17-19.94,21.17ZM447.85,1911.29c-13.31,0-19.96-10.08-19.96-20.16,0-10.08,6.65-20.16,19.96-20.16s19.96,10.08,19.96,20.16c0,10.08-6.64,20.16-19.96,20.16ZM459.42,1740.44c-13.32,0-19.96-10.08-19.96-20.16,0-10.08,6.64-20.16,19.96-20.16s19.96,10.08,19.96,20.16c0,10.08-6.64,20.16-19.96,20.16ZM433.5,1321.53c48.46-52.55,173.1-99.23,295.15-65.26,24.57,8.12,44.44,25.27,54.11,45.62,26.67,55.55-21.85,135.13-260.29,120.37-116.75-7.46-130.26-56.21-88.98-100.74ZM587.11,2068.69c-.4,9.75-7.04,19.21-19.94,19.21-14.46,0-21.05-11.89-19.81-22.75,1.04-9.15,7.64-17.57,19.81-17.57,13.73,0,20.37,10.72,19.94,21.1ZM582.73,1870.69c-12.72,0-19.35-9.2-19.92-18.81-.63-10.51,6.01-21.51,19.92-21.51,15.47,0,21.95,13.62,19.43,25.03-1.81,8.22-8.28,15.29-19.43,15.29ZM620.52,1856.07c-13.34-67.21,156.72-85.2,203.17-88.58,67.15-4.07,139,5.97,197.49,40.7,48.13,28.91,17.17,89.23-58.52,102.72-52.82,14.46-282.04,23.66-333.58-39.11-.03-.04-.07-.08-.1-.12-.36-.44-.7-.88-1.03-1.32-.08-.1-.16-.2-.23-.29-.29-.39-.57-.78-.85-1.18-.11-.16-.23-.31-.34-.47-.25-.36-.48-.72-.72-1.08-.13-.2-.26-.39-.39-.59-.21-.33-.4-.67-.6-1-.14-.23-.29-.47-.42-.7-.18-.31-.34-.62-.5-.92-.15-.27-.3-.54-.44-.81-.16-.31-.3-.62-.45-.93-.13-.28-.28-.55-.41-.83-.15-.32-.28-.65-.42-.98-.12-.27-.24-.54-.35-.82-.17-.41-.32-.83-.47-1.25-.07-.19-.15-.38-.22-.58-.22-.61-.42-1.23-.61-1.86ZM680.13,2003.95c0-13.11,9.77-19.75,19.69-19.95,10.23-.22,20.63,6.42,20.63,19.95,0,15.23-13.18,21.74-24.47,19.55-8.45-1.64-15.84-8.15-15.84-19.55ZM706.95,2204.39c-13.32,0-19.96-10.08-19.96-20.16,0-10.08,6.64-20.16,19.96-20.16s19.96,10.08,19.96,20.16c0,10.08-6.65,20.16-19.96,20.16ZM800.8,2134.27c-13.87,0-20.5-10.94-19.92-21.42.53-9.64,7.16-18.9,19.92-18.9s19.25,9.06,19.9,18.59c.73,10.58-5.9,21.73-19.9,21.73ZM935.26,2296.24c-14.03,0-20.65-11.19-19.9-21.78.67-9.51,7.3-18.54,19.9-18.54s19.33,9.17,19.91,18.77c.65,10.52-5.98,21.55-19.91,21.55ZM1004.48,2177.98c-13.92,0-20.55-11.01-19.91-21.53.57-9.6,7.2-18.79,19.91-18.79s19.45,9.34,19.93,19.02c.52,10.44-6.11,21.29-19.93,21.29ZM1127.87,2284.15c-13.43,0-20.07-10.24-19.95-20.41.1-9.99,6.74-19.91,19.95-19.91s19.87,9.95,19.95,19.96c.09,10.14-6.55,20.36-19.95,20.36ZM1187.98,2126.06c-2.27,7.5-8.61,13.65-19.01,13.65-12.73,0-19.37-9.22-19.92-18.84-.61-10.5,6.02-21.48,19.92-21.48,16.22,0,22.55,14.97,19.01,26.67ZM1266.97,1994.79c-40,20.99-103.57,38.27-170.45,49.44-.21.04-.42.07-.63.11-1.26.21-2.52.41-3.78.62-1.22.2-2.43.4-3.65.59-.26.04-.51.08-.77.12-83.93,13.31-171.72,16.92-223.8,6-75.89-21.85-46.54-134.74,30.6-117.04,96.81,8.89,197.36-7.54,290.23-35.34,87.27-55.11,154.21,42.98,82.25,95.5ZM1327.46,2053.1c0-13.31,10.08-19.97,20.16-19.97,10.08,0,20.16,6.65,20.16,19.97s-10.08,19.96-20.16,19.96c-10.08,0-20.16-6.64-20.16-19.96ZM1372.66,2190.52c-13.32,0-19.96-10.08-19.96-20.16,0-10.08,6.64-20.16,19.96-20.16s19.96,10.08,19.96,20.16c0,10.08-6.64,20.16-19.96,20.16ZM1422.75,1962.1c-13.44,0-20.08-10.26-19.95-20.44.12-9.99,6.76-19.88,19.95-19.88s19.84,9.89,19.95,19.88c.13,10.17-6.51,20.44-19.95,20.44ZM1454.53,1788.74c-.33.55-.68,1.11-1.04,1.66-22.32,34.62-80.55,54.42-141.47,65.71-34.09,7.38-69.45,12.31-100.61,14.78-49.15,6.08-85.46,2.44-109.42-6.66-12.08-4.07-20.94-10.14-26.73-17.24-7.18-8.29-9.79-17.85-7.97-27.71,1.02-6.76,4.04-13.4,8.98-19.33,1.66-2.01,3.42-4,5.26-6,16.8-20.41,49.04-41.91,87.97-59.78,70.62-33.21,159.74-51.94,221.04-34.48.43.12.87.25,1.3.37.3.09.59.17.88.26,21.07,6.31,38.78,17.09,51.15,33.43.02.03.04.06.06.09.51.68,1.01,1.36,1.5,2.05.52.73,1.03,1.48,1.53,2.23,17.66,10.2,16.1,34.64,7.56,50.61ZM1528.16,2033.54c-12.83,0-19.46-9.35-19.93-19.05-.51-10.44,6.12-21.27,19.93-21.27s20.42,10.8,19.93,21.22c-.45,9.71-7.08,19.1-19.93,19.1ZM1560.28,1837.29c-16.14,0-22.49-14.82-19.06-26.49,2.23-7.58,8.58-13.83,19.06-13.83s16.73,6.15,19.01,13.65c3.55,11.7-2.78,26.67-19.01,26.67ZM1566.61,1676.21c-14.84,0-21.4-12.52-19.7-23.61,1.35-8.81,7.91-16.71,19.7-16.71,10.98,0,17.43,6.86,19.34,14.92,2.74,11.48-3.71,25.39-19.34,25.39ZM1805.91,1511.62c-22.26,31.38-46.42,55.07-64.5,66.08-1.22.91-2.44,1.81-3.68,2.69,1.32-1.11,1.6-1.33,1.78-1.57-.11.06-.21.12-.32.18-5.61,5.64-12.54,6.87-18.71,5.22-.21-.05-.42-.08-.62-.13-3.82-1.05-7.19-3.28-9.75-6.2-.03-.04-.07-.07-.1-.11,0-.01-.02-.02-.03-.03-3.97-4.45-6.06-10.54-4.57-17.03.1-.47.22-.94.37-1.41,3.2-9.68,12.15-14.25,20.01-19.91,8.19-7.23,18.23-16.48,28.92-28.38,14.89-17.03,28.98-36.85,40.53-58.04,6.62-12.42,12.9-26.25,18.51-41.66,6.06-17.73,9.82-35.74,10.42-53.3.02-4.46-.08-8.65-.13-12.53,0-.12,0-.24-.02-.36-1.72-6.73-1.1-14.09,1.99-19.83,2.09-5.41,6.26-8.86,14.48-9.93,18.85-1.06,23.52,13.65,24.28,29.82,4.23,38.2-15.48,106.58-58.86,166.43Z"/>
  <path class="cls-2" d="M650.8,1314.68c10.02,20.1,9.43,45.25-10.36,66.17,89.81-10.38,121.6-42.94,103.8-67.03-13.56-17.97-54.7-31.21-119.3-27.02,11.78,6.6,20.57,16.53,25.86,27.89Z"/>
  <path class="cls-3" d="M782.77,1301.9c-9.68-20.36-29.54-37.5-54.11-45.62-122.05-33.97-246.69,12.71-295.15,65.26-41.08,44.55-27.42,93.31,88.98,100.74,237.17,14.68,286.7-64.81,260.29-120.37ZM462.47,1371.5c-.22-.32-.44-.62-.66-.9-.01-.01-.02-.03-.03-.04-1.03-1.33-2.08-2.31-3.11-3.08-.07-.06-.15-.11-.22-.17-.15-.11-.31-.22-.46-.32-.56-.38-1.11-.7-1.63-.98-.32-.17-.62-.33-.92-.48-.65-.33-1.25-.62-1.78-.91.34-.7.71-1.39,1.08-2.08,4.22-7.98,9.88-15.29,16.69-21.94,18.9-18.45,46.71-31.89,77.5-40.82,1.17-.34,2.34-.67,3.52-1,.59-.61,1.2-1.2,1.82-1.79,21.22-20.51,45.63-21.94,65.35-12.8,1.8.77,3.58,1.63,5.33,2.61,64.6-4.19,105.74,9.06,119.3,27.02,18.15,24.05-13.14,56.56-103.8,67.03-21.51,22.74-46.88,24.72-67.32,15.37-6.67-2.78-13.05-6.94-18.82-12.68-30.96-1.28-62.22-2.59-91.83-12.04Z"/>
  <path class="cls-5" d="M1184.71,1899.29c-92.87,27.8-193.42,44.22-290.23,35.34-77.14-17.7-106.49,95.19-30.6,117.04,51.88,10.88,139.74,7.31,223.8-6,.26-.04.51-.08.77-.12,1.22-.19,2.43-.4,3.65-.59,1.26-.21,2.52-.41,3.78-.62.21-.03.42-.07.63-.11,66.88-11.17,130.45-28.45,170.45-49.44,71.95-52.52,5.02-150.61-82.25-95.5Z"/>
  <path class="cls-4" d="M541.51,1365.46c6.68,13.39,18.07,24.55,31.61,30.75,20.45,9.35,45.81,7.38,67.32-15.37,19.79-20.92,20.38-46.07,10.36-66.17-6.6-13.25-17.82-24.3-31.19-30.5-19.72-9.15-44.13-7.71-65.35,12.8-.61.59-1.22,1.17-1.82,1.79-20.4,20.96-21.07,46.39-10.94,66.7ZM565.45,1346.11c.74-16.2,17.05-22.2,28.7-17.51,6.53,2.63,11.6,8.61,11.64,18.04,0,.42,0,.84-.02,1.27-.02.4-.05.8-.08,1.18-1.43,15-16.62,20.67-27.92,16.59-7.16-2.58-12.76-9.06-12.31-19.57Z"/>
  <path class="cls-4" d="M1363.89,1282.65c-.03.87-.05,1.73-.04,2.59.11,34.3,27.55,58.29,57.38,59.98.01,0,.03,0,.04,0,.37.02.74.03,1.11.04.38.01.76.03,1.13.04,0,0,.01,0,.02,0,14.97.27,30.37-5.12,43.08-17.66,1.27-1.25,2.52-2.58,3.73-3.98-5.8-3.59-11.31-7.47-16.57-11.61-.2-.16-.39-.31-.59-.47-1.46-1.16-2.9-2.34-4.32-3.54-.23-.19-.46-.4-.69-.59-1.16-1-2.31-2.01-3.45-3.03-.36-.33-.73-.65-1.09-.98-1.15-1.05-2.29-2.12-3.41-3.2-.54-.52-1.08-1.04-1.62-1.57-.89-.88-1.77-1.76-2.64-2.65-.77-.79-1.53-1.58-2.29-2.39-.48-.51-.96-1.03-1.44-1.54-1.25-1.35-2.49-2.72-3.71-4.12-.22-.25-.44-.5-.66-.75-13.44-15.49-24.94-33.45-34.83-53.61-16.75,10.08-28.38,27.66-29.15,49.03ZM1404.6,1277.11c24.68,0,26.83,40.31-1.8,40.31-11.12,0-17.52-7.86-18.79-16.63-1.79-11.1,4.58-23.68,20.59-23.68Z"/>
  <path d="M577.77,1365.68c11.3,4.07,26.49-1.6,27.92-16.59.04-.39.07-.78.08-1.18.02-.43.03-.85.02-1.27-.04-9.43-5.11-15.41-11.64-18.04-11.65-4.69-27.96,1.31-28.7,17.51-.44,10.51,5.15,16.99,12.31,19.57Z"/>
  <path d="M1384.01,1300.79c1.28,8.78,7.67,16.63,18.79,16.63,28.57,0,26.45-40.31,1.8-40.31-15.62,0-22.21,12.58-20.59,23.68Z"/>
  <path d="M447.85,1870.97c-13.31,0-19.96,10.08-19.96,20.16s6.66,20.16,19.96,20.16,19.95-10.08,19.96-20.16c0-10.08-6.64-20.16-19.96-20.16Z"/>
  <path d="M459.42,1700.13c-13.29,0-19.95,10.08-19.96,20.16s6.64,20.16,19.96,20.16,19.95-10.08,19.96-20.16c0-10.08-6.64-20.16-19.96-20.16Z"/>
  <path d="M582.73,1830.37c-13.89,0-20.53,11-19.92,21.51.56,9.61,7.19,18.81,19.92,18.81,11.15,0,17.62-7.07,19.43-15.29,2.51-11.41-3.97-25.03-19.43-25.03Z"/>
  <path d="M567.17,2047.59c-12.17,0-18.77,8.42-19.81,17.57-1.24,10.86,5.37,22.75,19.81,22.75,12.88,0,19.53-9.46,19.94-19.21.43-10.38-6.21-21.1-19.94-21.1Z"/>
  <path d="M720.45,2003.95c0-13.5-10.4-20.15-20.63-19.95-9.92.2-19.69,6.84-19.69,19.95,0,11.4,7.39,17.91,15.84,19.55,11.29,2.19,24.47-4.33,24.47-19.55Z"/>
  <path d="M354.3,1787.06c-.43-9.73-7.07-19.15-19.94-19.15-10.98,0-17.43,6.86-19.34,14.92-2.73,11.48,3.71,25.39,19.34,25.39,13.74,0,20.39-10.76,19.94-21.17Z"/>
  <path d="M1442.7,1941.66c-.12-9.99-6.76-19.88-19.95-19.88s-19.83,9.89-19.95,19.88c-.13,10.17,6.51,20.44,19.95,20.44s20.07-10.26,19.95-20.44Z"/>
  <path d="M1560.28,1796.98c-10.48,0-16.83,6.25-19.06,13.83-3.43,11.67,2.93,26.49,19.06,26.49s22.55-14.97,19.01-26.67c-2.27-7.5-8.61-13.65-19.01-13.65Z"/>
  <path d="M1566.61,1635.9c-11.79,0-18.35,7.9-19.7,16.71-1.7,11.09,4.87,23.61,19.7,23.61,15.64,0,22.08-13.91,19.34-25.39-1.92-8.06-8.37-14.92-19.34-14.92Z"/>
  <path d="M1528.16,1993.23c-13.78,0-20.43,10.83-19.93,21.27.47,9.7,7.1,19.05,19.93,19.05s19.47-9.38,19.93-19.1c.49-10.42-6.15-21.22-19.93-21.22Z"/>
  <path d="M1372.66,2150.2c-13.29,0-19.95,10.08-19.96,20.16,0,10.08,6.64,20.16,19.96,20.16s19.95-10.08,19.96-20.16c0-10.08-6.64-20.16-19.96-20.16Z"/>
  <path d="M1367.77,2053.1c0-13.31-10.08-19.97-20.16-19.97-10.08,0-20.16,6.66-20.16,19.97s10.08,19.95,20.16,19.96c10.08,0,20.16-6.64,20.16-19.96Z"/>
  <path d="M1168.98,2099.39c-13.88,0-20.52,10.98-19.92,21.48.55,9.62,7.18,18.84,19.92,18.84,10.4,0,16.73-6.15,19.01-13.65,3.55-11.7-2.79-26.67-19.01-26.67Z"/>
  <path d="M800.8,2093.96c-12.74,0-19.38,9.26-19.92,18.9-.58,10.48,6.05,21.42,19.92,21.42s20.63-11.16,19.9-21.73c-.66-9.53-7.29-18.59-19.9-18.59Z"/>
  <path d="M1004.48,2137.67c-12.72,0-19.34,9.19-19.91,18.79-.62,10.51,6.02,21.53,19.91,21.53s20.45-10.85,19.93-21.29c-.49-9.69-7.13-19.02-19.93-19.02Z"/>
  <path d="M621.82,1859.75c.11.27.24.54.35.82.14.33.28.66.42.98.13.28.27.55.41.83.15.31.3.62.45.93.14.27.29.54.44.81.17.31.33.62.5.92.14.24.28.47.42.7.2.33.39.67.6,1,.13.2.26.39.39.59.24.36.47.72.72,1.08.11.16.23.31.34.47.28.39.56.79.85,1.18.07.1.16.2.23.29.34.44.68.88,1.03,1.32.03.04.07.08.1.12,51.74,62.99,282.49,53.1,333.58,39.11,75.68-13.48,106.65-73.81,58.52-102.72-58.5-34.72-130.35-44.77-197.49-40.7-46.45,3.39-216.51,21.37-203.17,88.58.19.63.39,1.25.61,1.86.07.19.15.38.22.58.15.42.31.84.47,1.25Z"/>
  <path d="M1446.96,1738.13c-.5-.76-1.01-1.5-1.53-2.23-.49-.7-.99-1.38-1.5-2.05-.02-.03-.04-.06-.06-.09-12.36-16.34-30.08-27.13-51.15-33.43-.29-.09-.59-.18-.88-.26-.43-.13-.86-.25-1.3-.37-62.04-17.47-152.03,2.8-221.04,34.48-38.93,17.87-71.17,39.37-87.97,59.78-.25.3-.5.61-.75.91-7.49,7.98-12,16.3-13.5,24.42-1.83,9.86.79,19.41,7.97,27.71,5.86,6.77,14.75,12.69,26.73,17.24,23.96,9.11,60.27,12.74,109.42,6.66,10.89-1.35,22.41-3.17,34.56-5.51,21.3-2.17,43.85-5.15,66.05-9.27,60.91-11.29,119.15-31.09,141.47-65.71.35-.55.71-1.1,1.04-1.66,8.54-15.97,10.1-40.41-7.56-50.61Z"/>
  <path class="cls-5" d="M92.19,1234.78c-26.38,56.6-7.76,120.94,8.43,177.82,8.07,25.5,45.58,14.59,38.87-10.72-13.42-49.97-34.72-110.36-5.6-159.35,3.98-5.25,8.48-11.21,15.46-12.04,10.72-2.35,16.87-14.66,14.07-24.82-17.19-37.64-62.62,4.96-71.22,29.11Z"/>
  <path class="cls-5" d="M1840.49,1315.37c-8.22,1.07-12.39,4.52-14.48,9.93-1.96,5.1-2.08,11.94-1.97,20.19.05,3.88.15,8.06.13,12.53-.06,13.67-1.25,29.92-8.44,47.73-.65,1.88-1.31,3.73-1.98,5.57-5.61,15.41-11.89,29.23-18.51,41.66-12.95,24.3-27.24,43.23-40.53,58.04-10.69,11.9-20.73,21.14-28.92,28.38-11.01,9.73-18.66,15.83-20.01,19.91-.15.47-.26.94-.37,1.41-1.49,6.5.59,12.59,4.57,17.03,0,.01.02.02.03.03.03.04.07.07.1.11,2.76,3.04,6.41,5.28,10.37,6.34,6.17,1.65,13.1.41,18.71-5.22.18-.18.36-.34.54-.53-.09.16-.15.26-.22.36-.18.24-.46.45-1.78,1.57,1.24-.89,2.46-1.79,3.68-2.69,25.39-18.89,46.89-41.78,64.5-66.08,43.38-59.85,63.09-128.23,58.86-166.43-2.11-19.07-10.19-30.62-24.28-29.82Z"/>
  <path class="cls-3" d="M408.84,527.98c.25.05.49.12.73.19.02,0,.03,0,.05.01,14.3,4.24,10.74,35.31,85.26,140.26,104.95,83.09,227.14,58.26,356.67,22.66,23.87-6.56,47.99-13.49,72.29-20.17,47.72-3.69,94.79-3.76,141.38,5.63,27.58,5.56,54.98,14.43,82.25,27.84,38.86,17.44,69.21,40.32,93.19,66.64,38.91,42.73,61.03,94.56,75.49,147.08,14.33,52.05,21.13,104.76,29.26,149.94.19,1.03.37,2.06.56,3.08-1.99.37-3.96.74-5.91,1.12-.74.14-1.48.29-2.22.43-1.02.2-2.02.41-3.03.61-87.49,17.72-139.11,48.42-169.11,87.87-18.27,24.02-28.52,51.29-33.99,80.84-10.61,57.4-3.17,123.43-1.23,191.1.8,28.13.66,56.54-2.14,84.73-.37,4.18-.76,8.53-1.18,12.99-6.94,73.21-23.22,179.69-102.81,196.66-.13.03-.26.06-.39.08-1.14.24-2.3.45-3.47.66-.29.05-.57.1-.86.15-1.07.17-2.15.33-3.24.47-.34.04-.67.1-1.01.14-1.4.17-2.81.32-4.24.44-33.42,3.09-65.08-16.65-88.42-38.98-65.04-69.42-28.25-196.87-23.66-316.67,1.98-51.67-2.03-101.91-22.78-145.46-32.41-67.13-88.14-106.25-153.9-123.43-.19-.05-.37-.1-.56-.15-1.59-.41-3.19-.8-4.79-1.19-.48-.12-.95-.24-1.43-.35-1.35-.32-2.71-.61-4.06-.91-.74-.16-1.47-.34-2.22-.5-1.23-.26-2.46-.5-3.7-.75-.88-.18-1.75-.36-2.63-.53-1.07-.21-2.15-.39-3.22-.59-1.05-.19-2.1-.39-3.16-.57-.83-.14-1.67-.27-2.5-.4-1.31-.21-2.62-.43-3.94-.63-.59-.09-1.19-.16-1.78-.25-1.56-.23-3.13-.45-4.7-.66-.35-.05-.71-.08-1.07-.13-1.82-.23-3.63-.46-5.46-.66-.1-.01-.19-.02-.29-.03-43.52-4.79-89.8-1.53-135.6,8.3-.51.11-1.01.23-1.52.34-1.79.39-3.57.78-5.36,1.19-1.34.31-2.68.63-4.02.95-.95.23-1.9.44-2.85.67-1.13.28-2.26.57-3.39.85-1.16.29-2.31.57-3.47.87-1.53.39-3.05.81-4.58,1.22-.75.2-1.51.39-2.26.6-2.28.62-4.56,1.26-6.83,1.91-17.06,3.34-23.28,13.12-22.97,22.58.22,6.59,3.61,13.02,8.73,17,.02.01.03.03.05.04.15.12.31.23.46.34.52.38,1.05.73,1.6,1.06.06.03.11.07.17.1,5.87,3.41,13.42,3.77,20.98-1.58,1.68-.46,3.36-.92,5.03-1.36,36.2-9.68,69.4-15.02,99.67-16.62,61.15-3.22,110.26,8.89,147.7,31.59,23,13.94,41.6,31.87,55.87,52.7,23.56,34.37,35.35,76.62,35.76,121.78,0,.36,0,.71,0,1.07,0,.97,0,1.94,0,2.91,0,1.32-.03,2.65-.05,3.97,0,.47-.02.94-.03,1.4-.04,1.56-.09,3.12-.15,4.69-6.98,143.21-68.99,362.93,119.95,412.37,221.64,27.11,191.44-313.41,186.85-455.86-.07-2.08-.12-4.15-.16-6.19,0-.38,0-.74,0-1.12-.02-1.67-.04-3.33-.04-4.96,0-.27,0-.53,0-.8,0-1.74.02-3.46.05-5.17,0-.12,0-.24.01-.37.54-27.26,4.55-50.42,11.84-70.22.04-.11.09-.22.13-.33.47-1.27.96-2.53,1.45-3.78.1-.26.21-.52.32-.78.44-1.08.89-2.16,1.35-3.22.18-.42.38-.84.57-1.26.39-.88.78-1.76,1.19-2.62.28-.6.57-1.18.86-1.77.33-.67.65-1.34.98-2,.39-.78.8-1.54,1.2-2.3.24-.45.48-.91.72-1.36.52-.96,1.06-1.91,1.6-2.85.14-.24.27-.48.41-.71.67-1.15,1.35-2.28,2.05-3.4.01-.02.03-.04.04-.06,29.64-47.43,85.13-70.5,162.56-85.71,4.87,22.88,10.49,45.44,17.34,67.09-68.08,16.66-126.76,52.12-131.47,117.42-10.1,12.99-3.42,30.02,7.27,41.84,34.89,38.99,89.45,49.18,139.13,55.01,99.46,7.94,216.1,5.8,294.31-64.14,9.05-10.37,14.07-23.31,15.16-36.62,71.1-58.92,118.87-128.47,150.95-206.49,1.63-3.96,3.21-7.94,4.76-11.94,29.23-75.58,44.41-158.83,52.23-247.87,11.58-133.46-39.97-263.78-99.16-380.89-101.82-204.9-311.21-320-521.09-388.59-62.55-19.68-125.23-40.63-190.34-50C793.24-37.38,288.09,174.19,399.22,528.28c4.06-.68,7.11-.86,9.62-.31ZM1387.48,1221.7c1.79,4.06,3.65,8.03,5.56,11.92,9.89,20.16,21.4,38.12,34.83,53.61.22.25.44.5.66.75,1.22,1.39,2.45,2.77,3.71,4.12.48.52.96,1.03,1.44,1.54.76.8,1.52,1.6,2.29,2.39.87.89,1.75,1.78,2.64,2.65.54.53,1.08,1.05,1.62,1.57,1.13,1.08,2.26,2.15,3.41,3.2.36.33.73.65,1.09.98,1.14,1.02,2.29,2.03,3.45,3.03.23.2.46.4.69.59,1.42,1.2,2.86,2.38,4.32,3.54.2.16.39.31.59.47,17.76,13.98,38.19,24.64,61.78,31.58.28.08.57.17.85.25,3.97,1.15,8.04,2.2,12.19,3.14.49.11.99.22,1.49.33,2.04.45,4.1.88,6.19,1.28-2.14.38-4.35.75-6.62,1.11-.42.07-.85.13-1.28.19-.73.11-1.45.22-2.18.33-.62.09-1.26.18-1.89.27-.55.08-1.1.16-1.65.23-39.51,5.42-95.27,6.95-145.35-.54-.08-.01-.16-.02-.24-.03-1.07-.16-2.13-.33-3.19-.5-.45-.07-.91-.14-1.36-.21-.9-.15-1.8-.3-2.7-.46-.6-.1-1.2-.2-1.8-.3-.84-.15-1.67-.3-2.5-.45-.66-.12-1.32-.23-1.97-.36-.54-.1-1.07-.21-1.6-.31-.94-.18-1.89-.36-2.83-.55-.1-.02-.19-.04-.29-.06-26.3-5.34-50.09-13.54-67.85-25.43-.32-.22-.63-.44-.95-.66-.66-.45-1.32-.9-1.96-1.36-.88-.64-1.75-1.29-2.6-1.94-.06-.05-.13-.1-.2-.15-.71-.55-1.4-1.12-2.09-1.69-.19-.16-.39-.31-.59-.47-1.74-1.47-3.4-2.98-4.98-4.54.84-1.86,1.3-4.25,1.69-7.07,2.82-20.4,1.52-63.14,106.05-86.83.69,1.64,1.41,3.25,2.12,4.86Z"/>
  <path class="cls-3" d="M252.59,1259.99c9.86,22.12,11.5,34.14,17.64,43.08.13.19.26.37.39.56,0,.01.02.03.03.04,5.49,7.61,14.55,13.03,35.43,20.81,7.16,2.29,15.7,6.27,24.49,9.55,26.27,9.8,54.9,13.33,56.41-53.19,9.91-197.06-27.99-289.88,2.59-455.97,8.3-45.08,21.65-95.57,42.37-155,.13-.37.25-.73.38-1.1,1.52-4.36,3.09-8.77,4.69-13.23-.63-.95-1.26-1.9-1.89-2.85-9.53-14.45-18.26-29.11-25.73-42.65-14.54-26.34-24.33-48.43-25.94-56.35-185.81,104.45-252.52,523.46-204.07,538.96-.36,5.44-.88,7.12-.9,7.83-.1,2.95,8.49-11.13,74.1,159.52Z"/>
  <path d="M314.4,1600.97c-25.65-7.77-38.43,30.78-13.14,39.76,24.92,8.2,38.38-31.3,13.14-39.76Z"/>
  <path d="M706.95,2164.07c-13.3,0-19.95,10.08-19.96,20.16,0,10.08,6.64,20.16,19.96,20.16s19.96-10.08,19.96-20.16c0-10.08-6.66-20.16-19.96-20.16Z"/>
  <path d="M955.17,2274.7c-.58-9.6-7.21-18.77-19.91-18.77s-19.22,9.03-19.9,18.54c-.76,10.59,5.87,21.78,19.9,21.78s20.54-11.03,19.91-21.55Z"/>
  <path d="M1127.87,2243.84c-13.21,0-19.85,9.91-19.95,19.91-.1,10.16,6.55,20.41,19.95,20.41s20.05-10.21,19.95-20.36c-.09-10.01-6.75-19.96-19.95-19.96Z"/>
</svg>