<svg width="201" height="108" viewBox="0 0 201 108" fill="none" xmlns="http://www.w3.org/2000/svg">
<path d="M8.8 28C8.50667 28 8.25333 27.8933 8.04 27.68C7.82667 27.4667 7.72 27.2133 7.72 26.92V8.6H1.08C0.786667 8.6 0.533333 8.49333 0.32 8.28C0.106667 8.06667 0 7.81333 0 7.52V1.08C0 0.786668 0.106667 0.533334 0.32 0.320001C0.533333 0.106667 0.786667 0 1.08 0H24.52C24.8133 0 25.0667 0.106667 25.28 0.320001C25.4933 0.533334 25.6 0.786668 25.6 1.08V7.52C25.6 7.81333 25.4933 8.06667 25.28 8.28C25.0667 8.49333 24.8133 8.6 24.52 8.6H17.88V26.92C17.88 27.2133 17.7733 27.4667 17.56 27.68C17.3467 27.8933 17.0933 28 16.8 28H8.8Z" fill="#444444"/>
<path d="M29.5531 28C29.2598 28 29.0065 27.9067 28.7931 27.72C28.5798 27.5067 28.4731 27.24 28.4731 26.92V1.08C28.4731 0.786668 28.5798 0.533334 28.7931 0.320001C29.0065 0.106667 29.2598 0 29.5531 0H37.3931C37.6865 0 37.9398 0.106667 38.1531 0.320001C38.3665 0.533334 38.4731 0.786668 38.4731 1.08V9.48H44.9531V1.08C44.9531 0.786668 45.0598 0.533334 45.2731 0.320001C45.4865 0.106667 45.7398 0 46.0331 0H53.8731C54.1665 0 54.4198 0.106667 54.6331 0.320001C54.8465 0.533334 54.9531 0.786668 54.9531 1.08V26.92C54.9531 27.2133 54.8465 27.4667 54.6331 27.68C54.4198 27.8933 54.1665 28 53.8731 28H46.0331C45.7398 28 45.4865 27.8933 45.2731 27.68C45.0598 27.4667 44.9531 27.2133 44.9531 26.92V18.28H38.4731V26.92C38.4731 27.2133 38.3665 27.4667 38.1531 27.68C37.9398 27.8933 37.6865 28 37.3931 28H29.5531Z" fill="#444444"/>
<path d="M60.4516 28C60.1582 28 59.9049 27.8933 59.6916 27.68C59.4782 27.4667 59.3716 27.2133 59.3716 26.92V1.08C59.3716 0.786668 59.4782 0.533334 59.6916 0.320001C59.9049 0.106667 60.1582 0 60.4516 0H80.9716C81.2649 0 81.5182 0.106667 81.7316 0.320001C81.9449 0.533334 82.0516 0.786668 82.0516 1.08V6.72C82.0516 7.01333 81.9449 7.26667 81.7316 7.48C81.5182 7.69334 81.2649 7.8 80.9716 7.8H68.9716V10.32H80.0916C80.3849 10.32 80.6382 10.4267 80.8516 10.64C81.0649 10.8533 81.1716 11.1067 81.1716 11.4V16.6C81.1716 16.8933 81.0649 17.1467 80.8516 17.36C80.6382 17.5733 80.3849 17.68 80.0916 17.68H68.9716V20.2H81.2916C81.5849 20.2 81.8382 20.3067 82.0516 20.52C82.2649 20.7333 82.3716 20.9867 82.3716 21.28V26.92C82.3716 27.2133 82.2649 27.4667 82.0516 27.68C81.8382 27.8933 81.5849 28 81.2916 28H60.4516Z" fill="#444444"/>
<path d="M2.764 68C2.456 68 2.19 67.888 1.966 67.664C1.742 67.44 1.63 67.174 1.63 66.866V39.734C1.63 39.426 1.742 39.16 1.966 38.936C2.19 38.712 2.456 38.6 2.764 38.6H15.49C18.038 38.6 20.25 38.978 22.126 39.734C24.03 40.462 25.5 41.596 26.536 43.136C27.6 44.648 28.132 46.566 28.132 48.89C28.132 51.214 27.6 53.118 26.536 54.602C25.5 56.058 24.03 57.136 22.126 57.836C20.25 58.508 18.038 58.844 15.49 58.844H12.55V66.866C12.55 67.174 12.438 67.44 12.214 67.664C11.99 67.888 11.724 68 11.416 68H2.764ZM12.34 51.074H15.28C15.728 51.074 16.162 50.906 16.582 50.57C17.002 50.206 17.212 49.618 17.212 48.806C17.212 48.274 17.072 47.742 16.792 47.21C16.54 46.678 16.036 46.412 15.28 46.412H12.34V51.074Z" fill="#444444"/>
<path d="M32.3773 68C32.0693 68 31.8033 67.888 31.5793 67.664C31.3553 67.44 31.2433 67.174 31.2433 66.866V39.734C31.2433 39.426 31.3553 39.16 31.5793 38.936C31.8033 38.712 32.0693 38.6 32.3773 38.6H53.9233C54.2313 38.6 54.4973 38.712 54.7213 38.936C54.9453 39.16 55.0573 39.426 55.0573 39.734V45.656C55.0573 45.964 54.9453 46.23 54.7213 46.454C54.4973 46.678 54.2313 46.79 53.9233 46.79H41.3233V49.436H52.9993C53.3073 49.436 53.5733 49.548 53.7973 49.772C54.0213 49.996 54.1333 50.262 54.1333 50.57V56.03C54.1333 56.338 54.0213 56.604 53.7973 56.828C53.5733 57.052 53.3073 57.164 52.9993 57.164H41.3233V59.81H54.2593C54.5673 59.81 54.8333 59.922 55.0573 60.146C55.2813 60.37 55.3933 60.636 55.3933 60.944V66.866C55.3933 67.174 55.2813 67.44 55.0573 67.664C54.8333 67.888 54.5673 68 54.2593 68H32.3773Z" fill="#444444"/>
<path d="M60.391 68C60.083 68 59.817 67.888 59.593 67.664C59.369 67.44 59.257 67.174 59.257 66.866V39.734C59.257 39.426 59.369 39.16 59.593 38.936C59.817 38.712 60.083 38.6 60.391 38.6H72.823C76.8549 38.6 80.005 39.51 82.273 41.33C84.541 43.15 85.675 45.642 85.675 48.806C85.675 50.682 85.241 52.32 84.373 53.72C83.533 55.092 82.455 56.198 81.139 57.038L86.305 66.614C86.389 66.782 86.431 66.936 86.431 67.076C86.431 67.328 86.333 67.552 86.137 67.748C85.969 67.916 85.7589 68 85.507 68H76.897C76.337 68 75.917 67.86 75.637 67.58C75.357 67.3 75.1749 67.062 75.091 66.866L71.479 58.844H69.757V66.866C69.757 67.174 69.645 67.44 69.421 67.664C69.197 67.888 68.931 68 68.623 68H60.391ZM69.757 50.864H72.823C73.4669 50.864 73.943 50.654 74.251 50.234C74.587 49.786 74.755 49.282 74.755 48.722C74.755 48.162 74.601 47.644 74.293 47.168C74.013 46.664 73.5229 46.412 72.823 46.412H69.757V50.864Z" fill="#444444"/>
<path d="M90.7015 68C90.3935 68 90.1275 67.888 89.9035 67.664C89.6795 67.44 89.5675 67.174 89.5675 66.866V39.734C89.5675 39.426 89.6795 39.16 89.9035 38.936C90.1275 38.712 90.3935 38.6 90.7015 38.6H111.869C112.177 38.6 112.444 38.712 112.668 38.936C112.892 39.16 113.004 39.426 113.004 39.734V46.118C113.004 46.426 112.892 46.692 112.668 46.916C112.444 47.14 112.177 47.252 111.869 47.252H99.8575V50.36H111.03C111.338 50.36 111.604 50.472 111.827 50.696C112.051 50.92 112.164 51.186 112.164 51.494V57.836C112.164 58.144 112.051 58.41 111.827 58.634C111.604 58.858 111.338 58.97 111.03 58.97H99.8575V66.866C99.8575 67.174 99.7455 67.44 99.5215 67.664C99.2975 67.888 99.0315 68 98.7235 68H90.7015Z" fill="#444444"/>
<path d="M117.854 68C117.546 68 117.28 67.888 117.056 67.664C116.832 67.44 116.72 67.174 116.72 66.866V39.734C116.72 39.426 116.832 39.16 117.056 38.936C117.28 38.712 117.546 38.6 117.854 38.6H139.4C139.708 38.6 139.974 38.712 140.198 38.936C140.422 39.16 140.534 39.426 140.534 39.734V45.656C140.534 45.964 140.422 46.23 140.198 46.454C139.974 46.678 139.708 46.79 139.4 46.79H126.8V49.436H138.476C138.784 49.436 139.05 49.548 139.274 49.772C139.498 49.996 139.61 50.262 139.61 50.57V56.03C139.61 56.338 139.498 56.604 139.274 56.828C139.05 57.052 138.784 57.164 138.476 57.164H126.8V59.81H139.736C140.044 59.81 140.31 59.922 140.534 60.146C140.758 60.37 140.87 60.636 140.87 60.944V66.866C140.87 67.174 140.758 67.44 140.534 67.664C140.31 67.888 140.044 68 139.736 68H117.854Z" fill="#444444"/>
<path d="M157.842 68.42C155.154 68.42 152.774 68.028 150.702 67.244C148.63 66.46 146.978 65.228 145.746 63.548C144.542 61.868 143.884 59.698 143.772 57.038C143.744 55.89 143.73 54.658 143.73 53.342C143.73 52.026 143.744 50.766 143.772 49.562C143.884 46.958 144.556 44.816 145.788 43.136C147.048 41.456 148.714 40.21 150.786 39.398C152.886 38.586 155.238 38.18 157.842 38.18C159.634 38.18 161.356 38.39 163.008 38.81C164.688 39.202 166.2 39.832 167.544 40.7C168.888 41.568 169.952 42.688 170.736 44.06C171.548 45.404 171.968 47.028 171.996 48.932C171.996 49.184 171.898 49.408 171.702 49.604C171.534 49.772 171.324 49.856 171.072 49.856H162.504C162.056 49.856 161.72 49.772 161.496 49.604C161.3 49.408 161.118 49.086 160.95 48.638C160.642 47.742 160.222 47.14 159.69 46.832C159.158 46.524 158.528 46.37 157.8 46.37C156.876 46.37 156.134 46.622 155.574 47.126C155.042 47.602 154.748 48.484 154.692 49.772C154.608 52.068 154.608 54.42 154.692 56.828C154.748 58.116 155.042 59.012 155.574 59.516C156.134 59.992 156.876 60.23 157.8 60.23C158.528 60.23 159.158 60.062 159.69 59.726C160.25 59.39 160.67 58.802 160.95 57.962C161.09 57.486 161.272 57.164 161.496 56.996C161.72 56.828 162.056 56.744 162.504 56.744H171.072C171.324 56.744 171.534 56.842 171.702 57.038C171.898 57.206 171.996 57.416 171.996 57.668C171.968 59.572 171.548 61.21 170.736 62.582C169.952 63.926 168.888 65.032 167.544 65.9C166.2 66.768 164.688 67.412 163.008 67.832C161.356 68.224 159.634 68.42 157.842 68.42Z" fill="#444444"/>
<path d="M182.975 68C182.667 68 182.401 67.888 182.177 67.664C181.953 67.44 181.841 67.174 181.841 66.866V47.63H174.869C174.561 47.63 174.295 47.518 174.071 47.294C173.847 47.07 173.735 46.804 173.735 46.496V39.734C173.735 39.426 173.847 39.16 174.071 38.936C174.295 38.712 174.561 38.6 174.869 38.6H199.481C199.789 38.6 200.055 38.712 200.279 38.936C200.503 39.16 200.615 39.426 200.615 39.734V46.496C200.615 46.804 200.503 47.07 200.279 47.294C200.055 47.518 199.789 47.63 199.481 47.63H192.509V66.866C192.509 67.174 192.397 67.44 192.173 67.664C191.949 67.888 191.683 68 191.375 68H182.975Z" fill="#444444"/>
<path d="M2.764 107C2.456 107 2.19 106.888 1.966 106.664C1.742 106.44 1.63 106.174 1.63 105.866V78.734C1.63 78.426 1.742 78.16 1.966 77.936C2.19 77.712 2.456 77.6 2.764 77.6H9.4C9.96 77.6 10.38 77.754 10.66 78.062C10.94 78.37 11.122 78.594 11.206 78.734L17.296 88.814L23.386 78.734C23.47 78.594 23.652 78.37 23.932 78.062C24.212 77.754 24.632 77.6 25.192 77.6H31.828C32.136 77.6 32.402 77.712 32.626 77.936C32.85 78.16 32.962 78.426 32.962 78.734V105.866C32.962 106.174 32.85 106.44 32.626 106.664C32.402 106.888 32.136 107 31.828 107H24.226C23.918 107 23.652 106.888 23.428 106.664C23.204 106.44 23.092 106.174 23.092 105.866V94.358L20.32 98.894C20.18 99.118 19.984 99.356 19.732 99.608C19.508 99.832 19.186 99.944 18.766 99.944H15.826C15.406 99.944 15.07 99.832 14.818 99.608C14.594 99.356 14.412 99.118 14.272 98.894L11.5 94.358V105.866C11.5 106.174 11.388 106.44 11.164 106.664C10.94 106.888 10.674 107 10.366 107H2.764Z" fill="white"/>
<path d="M38.7347 107C38.4267 107 38.1607 106.888 37.9367 106.664C37.7127 106.44 37.6007 106.174 37.6007 105.866V78.734C37.6007 78.426 37.7127 78.16 37.9367 77.936C38.1607 77.712 38.4267 77.6 38.7347 77.6H60.2807C60.5887 77.6 60.8547 77.712 61.0787 77.936C61.3027 78.16 61.4147 78.426 61.4147 78.734V84.656C61.4147 84.964 61.3027 85.23 61.0787 85.454C60.8547 85.678 60.5887 85.79 60.2807 85.79H47.6807V88.436H59.3567C59.6647 88.436 59.9307 88.548 60.1547 88.772C60.3787 88.996 60.4907 89.262 60.4907 89.57V95.03C60.4907 95.338 60.3787 95.604 60.1547 95.828C59.9307 96.052 59.6647 96.164 59.3567 96.164H47.6807V98.81H60.6167C60.9247 98.81 61.1907 98.922 61.4147 99.146C61.6387 99.37 61.7507 99.636 61.7507 99.944V105.866C61.7507 106.174 61.6387 106.44 61.4147 106.664C61.1907 106.888 60.9247 107 60.6167 107H38.7347Z" fill="#444444"/>
<path d="M66.7484 107C66.4404 107 66.1744 106.888 65.9504 106.664C65.7264 106.44 65.6144 106.174 65.6144 105.866V78.734C65.6144 78.426 65.7264 78.16 65.9504 77.936C66.1744 77.712 66.4404 77.6 66.7484 77.6H73.3844C73.9444 77.6 74.3504 77.726 74.6024 77.978C74.8544 78.23 75.0224 78.426 75.1064 78.566L82.2044 90.2V78.734C82.2044 78.426 82.3164 78.16 82.5404 77.936C82.7644 77.712 83.0304 77.6 83.3384 77.6H90.9404C91.2484 77.6 91.5144 77.712 91.7384 77.936C91.9624 78.16 92.0744 78.426 92.0744 78.734V105.866C92.0744 106.174 91.9624 106.44 91.7384 106.664C91.5144 106.888 91.2484 107 90.9404 107H84.3044C83.7444 107 83.3384 106.874 83.0864 106.622C82.8344 106.342 82.6664 106.146 82.5824 106.034L75.4844 95.324V105.866C75.4844 106.174 75.3724 106.44 75.1484 106.664C74.9244 106.888 74.6584 107 74.3504 107H66.7484Z" fill="#444444"/>
<path d="M104.348 107C104.04 107 103.774 106.888 103.55 106.664C103.326 106.44 103.214 106.174 103.214 105.866V86.63H96.2422C95.9342 86.63 95.6682 86.518 95.4442 86.294C95.2202 86.07 95.1082 85.804 95.1082 85.496V78.734C95.1082 78.426 95.2202 78.16 95.4442 77.936C95.6682 77.712 95.9342 77.6 96.2422 77.6H120.854C121.162 77.6 121.428 77.712 121.652 77.936C121.876 78.16 121.988 78.426 121.988 78.734V85.496C121.988 85.804 121.876 86.07 121.652 86.294C121.428 86.518 121.162 86.63 120.854 86.63H113.882V105.866C113.882 106.174 113.77 106.44 113.546 106.664C113.322 106.888 113.056 107 112.748 107H104.348Z" fill="#444444"/>
<path d="M137.99 107.42C135.246 107.42 132.838 107 130.766 106.16C128.722 105.32 127.098 104.06 125.894 102.38C124.718 100.672 124.074 98.572 123.962 96.08C123.934 94.932 123.92 93.714 123.92 92.426C123.92 91.138 123.934 89.892 123.962 88.688C124.074 86.224 124.718 84.138 125.894 82.43C127.07 80.722 128.694 79.42 130.766 78.524C132.838 77.628 135.246 77.18 137.99 77.18C140.734 77.18 143.142 77.628 145.214 78.524C147.286 79.42 148.91 80.722 150.086 82.43C151.29 84.138 151.934 86.224 152.018 88.688C152.074 89.892 152.102 91.138 152.102 92.426C152.102 93.714 152.074 94.932 152.018 96.08C151.906 98.572 151.248 100.672 150.044 102.38C148.868 104.06 147.244 105.32 145.172 106.16C143.128 107 140.734 107.42 137.99 107.42ZM137.99 99.23C138.914 99.23 139.656 98.964 140.216 98.432C140.776 97.872 141.07 97.004 141.098 95.828C141.154 94.624 141.182 93.434 141.182 92.258C141.182 91.082 141.154 89.92 141.098 88.772C141.07 87.988 140.916 87.344 140.636 86.84C140.384 86.336 140.034 85.972 139.586 85.748C139.138 85.496 138.606 85.37 137.99 85.37C137.402 85.37 136.87 85.496 136.394 85.748C135.946 85.972 135.582 86.336 135.302 86.84C135.05 87.344 134.91 87.988 134.882 88.772C134.854 89.92 134.84 91.082 134.84 92.258C134.84 93.434 134.854 94.624 134.882 95.828C134.938 97.004 135.232 97.872 135.764 98.432C136.324 98.964 137.066 99.23 137.99 99.23Z" fill="#444444"/>
<path d="M157.024 107C156.716 107 156.45 106.888 156.226 106.664C156.002 106.44 155.89 106.174 155.89 105.866V78.734C155.89 78.426 156.002 78.16 156.226 77.936C156.45 77.712 156.716 77.6 157.024 77.6H169.456C173.488 77.6 176.638 78.51 178.906 80.33C181.174 82.15 182.308 84.642 182.308 87.806C182.308 89.682 181.874 91.32 181.006 92.72C180.166 94.092 179.088 95.198 177.772 96.038L182.938 105.614C183.022 105.782 183.064 105.936 183.064 106.076C183.064 106.328 182.966 106.552 182.77 106.748C182.602 106.916 182.392 107 182.14 107H173.53C172.97 107 172.55 106.86 172.27 106.58C171.99 106.3 171.808 106.062 171.724 105.866L168.112 97.844H166.39V105.866C166.39 106.174 166.278 106.44 166.054 106.664C165.83 106.888 165.564 107 165.256 107H157.024ZM166.39 89.864H169.456C170.1 89.864 170.576 89.654 170.884 89.234C171.22 88.786 171.388 88.282 171.388 87.722C171.388 87.162 171.234 86.644 170.926 86.168C170.646 85.664 170.156 85.412 169.456 85.412H166.39V89.864Z" fill="#444444"/>
</svg>
